<svg height="512" viewBox="0 0 64 64" width="512" xmlns="http://www.w3.org/2000/svg"><g id="Twotone"><g id="Color_copy_2" data-name="Color copy 2"><path d="m53 49-1.392-3.319a89.017 89.017 0 0 0 -37.608-42.681l3 9-13-2 10 8-11 4 5.419 1.9a70.211 70.211 0 0 1 34.726 26.612z" fill="#fff"/><path d="m44.074 48.346a71.717 71.717 0 0 0 -34.994-26.335l-.132-.046 9.082-3.3-6.93-5.55 8.838 1.36-2.288-6.86a87.583 87.583 0 0 1 32.118 38.84l.4.957z" fill="#cff09e"/><path d="m44.979 46.184a73.571 73.571 0 0 0 -30.351-24.156l6.432-.7-3.869-6.098 5.675 2.72-1.368-5.1a85.629 85.629 0 0 1 25.818 32.975z" fill="#a8dba8"/><path d="m47.393 35.118 4.205 8.52 9.402 1.366-6.804 6.632 1.607 9.364-8.41-4.421-8.41 4.421 1.606-9.364-6.803-6.632 9.402-1.366z" fill="#79bd9a"/><path d="m55.803 61-8.41-4.421-8.41 4.421 8.41-10.941z" fill="#79bd9a"/><path d="m61 45.004-6.804 6.632 1.607 9.364-8.41-10.941z" fill="#a8dba8"/><path d="m61 45.004-9.402-1.366-4.205-8.52v14.941z" fill="#cff09e"/><path d="m33.786 45.004 9.402-1.366 4.205-8.52v14.941z" fill="#a8dba8"/><path d="m16.794 44 1.3 2.633 2.906.423-2.103 2.05.496 2.894-2.599-1.367-2.599 1.367.496-2.894-2.103-2.05 2.906-.423z" fill="#fff"/><path d="m55.794 15 1.3 2.633 2.906.423-2.103 2.05.496 2.894-2.599-1.367-2.599 1.367.496-2.894-2.103-2.05 2.906-.423z" fill="#fff"/><g fill="#cff09e"><path d="m16.794 44 .3 4.633 3.906-1.577-2.103 2.05.496 2.894-2.599-1.367-2.599 1.367.496-2.894-2.103-2.05 2.906-.423z"/><path d="m55.794 15 .3 4.633 3.906-1.577-2.103 2.05.496 2.894-2.599-1.367-2.599 1.367.496-2.894-2.103-2.05 2.906-.423z"/></g></g><g id="Stroke_Close_copy" fill="#3b8686" data-name="Stroke Close copy"><path d="m7.427 26.73a1 1 0 0 0 -.662 1.888 64.7 64.7 0 0 1 22.328 13.287 1 1 0 1 0 1.347-1.478 66.683 66.683 0 0 0 -23.013-13.697z"/><path d="m46.477 29.7a1 1 0 1 0 1.671-1.1 94.417 94.417 0 0 0 -23.012-24.284 1 1 0 1 0 -1.186 1.611 92.427 92.427 0 0 1 22.527 23.773z"/><path d="m54.807 36.016a1 1 0 0 0 .888.54.98.98 0 0 0 .459-.113 1 1 0 0 0 .428-1.348 98.377 98.377 0 0 0 -20.212-26.635 1 1 0 1 0 -1.365 1.461 96.413 96.413 0 0 1 19.802 26.095z"/><path d="m23.894 41.409a1 1 0 0 0 -.183-1.4 63.119 63.119 0 0 0 -17.611-9.504 1 1 0 0 0 -.662 1.888 61.085 61.085 0 0 1 17.05 9.2 1 1 0 0 0 1.4-.184z"/><path d="m61.951 44.7a1 1 0 0 0 -.807-.681l-8.882-1.29-3.973-8.048a1.035 1.035 0 0 0 -1.326-.419 90.1 90.1 0 0 0 -32.463-32.128 1 1 0 0 0 -1.448 1.182l2.481 7.447-11.381-1.751a1 1 0 0 0 -.777 1.769l8.61 6.887-9.327 3.392a1 1 0 0 0 .011 1.884l5.419 1.9a69.294 69.294 0 0 1 28.312 18.769l-2.758.4a1 1 0 0 0 -.555 1.706l6.428 6.265-1.515 8.847a1 1 0 0 0 1.451 1.054l7.944-4.177 7.944 4.177a1 1 0 0 0 1.451-1.054l-1.52-8.846 6.43-6.265a1 1 0 0 0 .251-1.02zm-10.5-.068 5.526.8-8.587 3.19v-9.222l2.31 4.68a1 1 0 0 0 .754.547zm-29.551-23.842-2-3.15 2.531 1.212a1 1 0 0 0 1.4-1.161l-.575-2.145a85.259 85.259 0 0 1 20.344 24.989l-.7 1.424a73.865 73.865 0 0 0 -24.566-19.33l2.832-.31a1 1 0 0 0 .734-1.529zm21.432 23.837a1 1 0 0 0 .753-.547l2.308-4.68v9.217l-8.587-3.187zm-34.582-21.672-2.776-.973 8.368-3.042a1 1 0 0 0 .283-1.721l-7.077-5.661 9.3 1.43a1 1 0 0 0 1.1-1.3l-2.148-6.447a88.113 88.113 0 0 1 29.964 30.917l-1.089 2.208a87.206 87.206 0 0 0 -22.565-26.311 1 1 0 0 0 -1.578 1.05l.8 3-3.714-1.779a1 1 0 0 0 -1.276 1.437l3.007 4.739-4.835.529a1 1 0 0 0 -.287 1.912 71.985 71.985 0 0 1 26.873 19.988l-2.325.338a71.308 71.308 0 0 0 -30.025-20.314zm29.121 24.633 7.9 2.937-5.121 6.663.923-5.383a1 1 0 0 0 -.287-.886zm9.522 7.991a1.006 1.006 0 0 0 -.466.114l-4.369 2.3 4.835-6.293 4.835 6.291-4.371-2.3a1 1 0 0 0 -.464-.112zm5.818-3.774.923 5.384-5.122-6.664 7.9-2.937-3.412 3.331a1 1 0 0 0 -.289.886z"/><path d="m10.365 54.951h-1v-1a1 1 0 0 0 -2 0v1h-1a1 1 0 0 0 0 2h1v1a1 1 0 0 0 2 0v-1h1a1 1 0 1 0 0-2z"/><path d="m46 6h1v1a1 1 0 0 0 2 0v-1h1a1 1 0 0 0 0-2h-1v-1a1 1 0 0 0 -2 0v1h-1a1 1 0 0 0 0 2z"/><circle cx="24" cy="60" r="1"/><circle cx="29" cy="51" r="1"/><circle cx="4" cy="39" r="1"/><circle cx="60" cy="7" r="1"/><path d="m54.756 12.658a1 1 0 1 0 -1.414 0 1 1 0 0 0 1.414 0z"/><circle cx="40" cy="5" r="1"/><path d="m21.144 46.066-2.386-.347-1.068-2.161a1.041 1.041 0 0 0 -1.793 0l-1.067 2.161-2.386.347a1 1 0 0 0 -.554 1.706l1.727 1.683-.408 2.376a1 1 0 0 0 1.451 1.054l2.134-1.122 2.134 1.122a1 1 0 0 0 1.451-1.054l-.407-2.376 1.728-1.684a1 1 0 0 0 -.554-1.7zm-2.944 2.324a1 1 0 0 0 -.287.884l.153.9-.8-.424a1 1 0 0 0 -.932 0l-.806.424.155-.9a1 1 0 0 0 -.287-.886l-.653-.635.9-.131a1 1 0 0 0 .753-.547l.4-.817.4.817a1 1 0 0 0 .753.547l.9.131z"/><path d="m50.637 17.747a1 1 0 0 0 .253 1.025l1.727 1.683-.408 2.376a1 1 0 0 0 1.451 1.054l2.134-1.122 2.134 1.122a1 1 0 0 0 1.451-1.054l-.407-2.376 1.728-1.684a1 1 0 0 0 -.554-1.705l-2.386-.347-1.07-2.161a1.041 1.041 0 0 0 -1.793 0l-1.067 2.161-2.386.347a1 1 0 0 0 -.807.681zm4 .876a1 1 0 0 0 .753-.547l.4-.817.4.817a1 1 0 0 0 .753.547l.9.131-.653.636a1 1 0 0 0 -.287.884l.153.9-.8-.424a1 1 0 0 0 -.932 0l-.806.424.155-.9a1 1 0 0 0 -.287-.886l-.653-.635z"/></g></g></svg>